<?xml version="1.0" standalone="no"?>
<!DOCTYPE svg PUBLIC "-//W3C//DTD SVG 20010904//EN"
 "http://www.w3.org/TR/2001/REC-SVG-20010904/DTD/svg10.dtd">
<svg version="1.0" xmlns="http://www.w3.org/2000/svg"
 width="512.000000pt" height="512.000000pt" viewBox="0 0 512.000000 512.000000"
 preserveAspectRatio="xMidYMid meet">
<metadata>
Created by potrace 1.14, written by Peter Selinger 2001-2017
</metadata>
<g transform="translate(0.000000,512.000000) scale(0.100000,-0.100000)"
fill="#000000" stroke="none">
<path d="M2379 5026 c-2 -2 -36 -7 -75 -10 -39 -4 -82 -9 -95 -11 -13 -3 -41
-7 -64 -10 -22 -3 -87 -17 -145 -31 -891 -210 -1596 -907 -1819 -1799 -26
-106 -42 -200 -61 -360 -8 -73 -5 -454 4 -515 3 -19 9 -51 12 -70 3 -19 7 -47
9 -61 1 -14 8 -49 15 -78 7 -28 10 -61 7 -73 -8 -28 52 -233 108 -371 50 -121
166 -349 194 -382 10 -11 20 -27 23 -35 13 -38 193 -264 289 -364 130 -136
261 -246 410 -344 128 -85 131 -87 226 -138 198 -105 474 -201 683 -238 14 -2
36 -7 50 -10 27 -6 73 -11 165 -20 144 -14 174 -15 185 -1 9 10 39 14 108 14
54 0 115 3 137 5 22 3 69 8 105 12 36 3 72 7 80 9 8 1 31 5 50 8 257 42 564
152 784 279 461 267 791 620 1012 1083 130 274 199 519 231 825 12 112 8 423
-6 525 -7 50 -14 101 -16 115 -18 128 -81 352 -141 503 -243 604 -714 1088
-1314 1349 -135 59 -394 138 -500 154 -19 2 -46 7 -60 10 -14 3 -43 8 -65 10
-22 3 -51 7 -65 11 -27 6 -455 14 -461 9z"/>
</g>
</svg>
